<svg width="162" height="162" viewBox="0 0 162 162" fill="none" xmlns="http://www.w3.org/2000/svg">
<path d="M150.188 81C150.188 71.3475 144.247 62.9775 135.405 58.455C138.51 49.0725 136.755 38.88 129.938 32.0625C123.12 25.245 112.927 23.49 103.545 26.595C99.09 17.7525 90.6525 11.8125 81 11.8125C71.3475 11.8125 62.9775 17.7525 58.5225 26.595C49.0725 23.49 38.88 25.245 32.0625 32.0625C25.245 38.88 23.5575 49.0725 26.6625 58.455C17.82 62.9775 11.8125 71.3475 11.8125 81C11.8125 90.6525 17.82 99.0225 26.6625 103.545C23.5575 112.927 25.245 123.12 32.0625 129.938C38.88 136.755 49.0725 138.442 58.455 135.405C62.9775 144.247 71.3475 150.188 81 150.188C90.6525 150.188 99.09 144.247 103.545 135.405C112.927 138.442 123.12 136.755 129.938 129.938C136.755 123.12 138.51 112.927 135.405 103.545C144.247 99.0225 150.188 90.6525 150.188 81ZM71.145 109.35L45.9 84.105L55.4175 74.52L70.6725 89.775L103.073 54.4725L112.995 63.6525L71.145 109.35Z" fill="white"/>
</svg>
